# xmcd
# 
# Track frame offsets:
#     187
#     16475
#     59370
#     90810
#     119565
#     155740
# 
# Disc length: 2551
# 
# Revision: 3
# Processed by: cddbd v1.5.2PL0 Copyright (c) Steve Scherf et al.
# Submitted via: BonkEnc v1.0.8
# 
DISCID=4509f506
DTITLE=The Brecker Brothers - Heavy Metal Be-Bop
DYEAR=1978
DGENRE=Fusion
TTITLE0=East River
TTITLE1=Inside Out
TTITLE2=Some Skunk Funk
TTITLE3=Sponge
TTITLE4=Funky Sea, Funky Dew
TTITLE5=Squids
EXTD=YEAR: 1978
EXTT0=
EXTT1=
EXTT2=
EXTT3=
EXTT4=
EXTT5=
PLAYORDER=
